<svg xmlns="http://www.w3.org/2000/svg" viewBox="0 0 32 32"><g data-name="15-tire-pressure"><path fill="#57DFB7" d="M18 30a1 1 0 0 1-1-1V27a1 1 0 0 1 2 0v2A1 1 0 0 1 18 30zM22 30a1 1 0 0 1-1-1V26a1 1 0 0 1 2 0v3A1 1 0 0 1 22 30zM14 30a1 1 0 0 1-1-1V27a1 1 0 0 1 2 0v2A1 1 0 0 1 14 30zM10 30a1 1 0 0 1-1-1V26a1 1 0 0 1 2 0v3A1 1 0 0 1 10 30z"/><path fill="#57DFB7" d="M16,28A12,12,0,0,1,9,6.26V3a1,1,0,0,1,2,0V6.79a1,1,0,0,1-.45.84,10,10,0,1,0,10.91,0A1,1,0,0,1,21,6.79V3a1,1,0,0,1,2,0V6.26A12,12,0,0,1,16,28Z"/><path fill="#57DFB7" d="M16 17a1 1 0 0 1-1-1V10a1 1 0 0 1 2 0v6A1 1 0 0 1 16 17zM16 23a1 1 0 0 1-1-1V20a1 1 0 0 1 2 0v2A1 1 0 0 1 16 23z"/></g></svg>